<?xml version="1.0" encoding="UTF-8" standalone="no"?>
<!-- Created with Inkscape (http://www.inkscape.org/) -->

<svg
   width="15.874983mm"
   height="10.583317mm"
   viewBox="0 0 15.874983 10.583317"
   version="1.1"
   id="svg1"
   xmlns="http://www.w3.org/2000/svg"
   xmlns:svg="http://www.w3.org/2000/svg">
  <defs
     id="defs1">
    <linearGradient
       id="swatch13"
       gradientTransform="matrix(7.9999925,0,0,5.3333248,37.911254,-293.30153)">
      <stop
         style="stop-color:#100a15;stop-opacity:1;"
         offset="0"
         id="stop13" />
    </linearGradient>
  </defs>
  <g
     id="layer1"
     transform="translate(-166.1583,-72.495843)">
    <rect
       style="fill:#20112c;fill-opacity:1;stroke:none;stroke-width:5.29164;stroke-linecap:round;stroke-linejoin:round;stroke-miterlimit:3.5;stroke-dasharray:none;stroke-opacity:1"
       id="rect128"
       width="15.874974"
       height="10.583316"
       x="166.15833"
       y="72.495842" />
    <g
       id="g128"
       transform="translate(16.933327,-4.2333272)">
      <g
         id="g118"
         transform="matrix(1,0,0,0.88888872,65.087491,19.461587)"
         style="fill:#4f1480;fill-opacity:1">
        <circle
           style="fill:#4f1480;fill-opacity:1;stroke-width:0.749998;stroke-linecap:round;stroke-linejoin:round;stroke-miterlimit:3.5"
           id="circle118"
           cx="90.487511"
           cy="67.204155"
           r="1.5874946" />
        <rect
           style="fill:#4f1480;fill-opacity:1;stroke-width:0.749998;stroke-linecap:round;stroke-linejoin:round;stroke-miterlimit:3.5"
           id="rect118"
           width="3.1749892"
           height="4.7625093"
           x="88.900002"
           y="67.204155"
           ry="0" />
      </g>
      <g
         id="g119"
         transform="matrix(1,0,0,0.88888872,68.262499,19.461591)"
         style="fill:#4f1480;fill-opacity:1">
        <circle
           style="fill:#4f1480;fill-opacity:1;stroke-width:0.749998;stroke-linecap:round;stroke-linejoin:round;stroke-miterlimit:3.5"
           id="circle119"
           cx="90.487511"
           cy="67.204155"
           r="1.5874946" />
        <rect
           style="fill:#4f1480;fill-opacity:1;stroke-width:0.749998;stroke-linecap:round;stroke-linejoin:round;stroke-miterlimit:3.5"
           id="rect119"
           width="3.1749892"
           height="4.7625093"
           x="88.900002"
           y="67.204155"
           ry="0" />
      </g>
      <g
         id="g120"
         transform="matrix(1,0,0,0.88888872,73.025002,18.050464)"
         style="fill:#7005c7;fill-opacity:1">
        <circle
           style="fill:#7005c7;fill-opacity:1;stroke-width:0.499999;stroke-linecap:round;stroke-linejoin:round;stroke-miterlimit:3.5"
           id="circle120"
           cx="85.724998"
           cy="68.791672"
           r="1.058331" />
        <rect
           style="fill:#7005c7;fill-opacity:1;stroke-width:0.499999;stroke-linecap:round;stroke-linejoin:round;stroke-miterlimit:3.5"
           id="rect120"
           width="2.116662"
           height="3.17501"
           x="84.666656"
           y="68.791672"
           ry="0" />
      </g>
      <g
         id="g121"
         transform="matrix(1,0,0,0.88888872,69.850008,18.050466)"
         style="fill:#7005c7;fill-opacity:1">
        <circle
           style="fill:#7005c7;fill-opacity:1;stroke-width:0.499999;stroke-linecap:round;stroke-linejoin:round;stroke-miterlimit:3.5"
           id="circle121"
           cx="85.724998"
           cy="68.791672"
           r="1.058331" />
        <rect
           style="fill:#7005c7;fill-opacity:1;stroke-width:0.499999;stroke-linecap:round;stroke-linejoin:round;stroke-miterlimit:3.5"
           id="rect121"
           width="2.116662"
           height="3.17501"
           x="84.666656"
           y="68.791672"
           ry="0" />
      </g>
      <g
         id="g123"
         transform="matrix(1,0,0,0.88888872,68.262497,10.99491)"
         style="fill:#ecddf8;fill-opacity:1">
        <circle
           style="fill:#ecddf8;fill-opacity:1;stroke-width:0.5;stroke-linecap:round;stroke-linejoin:round;stroke-miterlimit:3.5"
           id="circle122"
           cx="91.016663"
           cy="80.433334"
           r="2.116667" />
        <rect
           style="fill:#ecddf8;fill-opacity:1;stroke-width:0.250001;stroke-linecap:round;stroke-linejoin:round;stroke-miterlimit:3.5"
           id="rect122"
           width="4.2333279"
           height="4.2333379"
           x="86.783333"
           y="-82.550003"
           ry="0"
           transform="scale(1,-1)" />
        <circle
           style="fill:#ecddf8;fill-opacity:1;stroke-width:0.5;stroke-linecap:round;stroke-linejoin:round;stroke-miterlimit:3.5"
           id="circle123"
           cx="86.783333"
           cy="80.433334"
           r="2.116667" />
      </g>
      <g
         id="g124"
         transform="matrix(1,0,0,0.88888872,73.554159,16.63936)"
         style="fill:#ecddf8;fill-opacity:1">
        <circle
           style="fill:#ecddf8;fill-opacity:1;stroke-width:0.25;stroke-linecap:round;stroke-linejoin:round;stroke-miterlimit:3.5"
           id="circle124"
           cx="82.020836"
           cy="70.379166"
           r="0.52916664" />
        <rect
           style="fill:#ecddf8;fill-opacity:1;stroke-width:0.25;stroke-linecap:round;stroke-linejoin:round;stroke-miterlimit:3.5"
           id="rect124"
           width="1.0583333"
           height="1.5875083"
           x="81.491669"
           y="70.379166"
           ry="0" />
      </g>
      <g
         id="g125"
         transform="matrix(1,0,0,0.88888872,76.729159,16.63936)"
         style="fill:#ecddf8;fill-opacity:1">
        <circle
           style="fill:#ecddf8;fill-opacity:1;stroke-width:0.25;stroke-linecap:round;stroke-linejoin:round;stroke-miterlimit:3.5"
           id="circle125"
           cx="82.020836"
           cy="70.379166"
           r="0.52916664" />
        <rect
           style="fill:#ecddf8;fill-opacity:1;stroke-width:0.25;stroke-linecap:round;stroke-linejoin:round;stroke-miterlimit:3.5"
           id="rect125"
           width="1.0583333"
           height="1.5875083"
           x="81.491669"
           y="70.379166"
           ry="0" />
      </g>
      <ellipse
         style="fill:#20112c;fill-opacity:1;stroke-width:0.235702;stroke-linecap:round;stroke-linejoin:round;stroke-miterlimit:3.5"
         id="ellipse125"
         cx="157.16251"
         cy="82.49118"
         rx="1.5875"
         ry="1.4111109" />
      <g
         id="g127"
         style="fill:#ecddf8;fill-opacity:1"
         transform="matrix(1,0,0,0.88888872,68.262497,10.99491)">
        <rect
           style="fill:#ecddf8;fill-opacity:1;stroke-width:0.353273;stroke-linecap:round;stroke-linejoin:round;stroke-miterlimit:3.5"
           id="rect126"
           width="2.1166663"
           height="3.1699822"
           x="87.841667"
           y="80.438354"
           ry="0" />
        <circle
           style="fill:#ecddf8;fill-opacity:1;stroke-width:0.25;stroke-linecap:round;stroke-linejoin:round;stroke-miterlimit:3.5"
           id="circle126"
           cx="88.900002"
           cy="80.433334"
           r="1.0583333" />
        <circle
           style="fill:#ecddf8;fill-opacity:1;stroke-width:0.25;stroke-linecap:round;stroke-linejoin:round;stroke-miterlimit:3.5"
           id="circle127"
           cx="88.899994"
           cy="83.608337"
           r="1.0583333" />
      </g>
      <path
         d="m 155.57437,77.265043 c -1.13106,-3e-6 -2.11735,0.838258 -2.11719,1.939417 v 1.459342 c -0.61412,0.443405 -1.05206,1.080639 -1.05626,1.829863 a 0.52921795,0.52921795 0 0 0 0,0.0041 c -5e-5,1.360875 1.22104,2.41019 2.64428,2.410189 a 0.52921795,0.52921795 0 0 0 0.004,0 c 6.8e-4,-4e-6 10e-4,6e-6 0.002,0 h 0.52348 v 0.406177 0.0057 c 2.3e-4,0.841144 0.74945,1.468642 1.58802,1.468644 0.83857,5e-6 1.58727,-0.627495 1.5875,-1.468644 V 84.90797 h 0.52348 0.006 c 1.42325,10e-7 2.64432,-1.04932 2.64429,-2.410189 -5e-4,-0.753423 -0.44065,-1.39608 -1.05834,-1.841748 V 79.20446 c 1.6e-4,-1.101159 -0.98405,-1.93942 -2.11511,-1.939417 -0.65974,-2e-6 -1.19398,0.330503 -1.58802,0.787032 -0.39405,-0.456529 -0.92829,-0.787034 -1.58802,-0.787032 z m 5.1e-4,0.52865 c 0.87683,-3e-6 1.58761,0.631881 1.5875,1.411284 -1.1e-4,-0.779403 0.71067,-1.411287 1.5875,-1.411284 0.87683,-3e-6 1.58761,0.631881 1.5875,1.411284 v 1.663981 c 0.65452,0.3359 1.0579,0.956523 1.05834,1.628324 10e-6,0.32473 -0.0924,0.630502 -0.25528,0.897103 -0.0652,0.106641 -0.14163,0.206797 -0.2279,0.299723 -0.30185,0.325129 -0.72458,0.558678 -1.20664,0.646473 -0.1378,0.02506 -0.28072,0.03824 -0.42685,0.03824 h -1.05833 v 0.941028 a 1.0583333,0.94074051 0 0 1 -1.05834,0.940511 1.0583333,0.94074051 0 0 1 -1.05833,-0.940511 v -0.941028 h -1.05833 c -0.14596,0 -0.2887,-0.01323 -0.42633,-0.03824 -0.96455,-0.175449 -1.69038,-0.934056 -1.69034,-1.843299 0.004,-0.668845 0.40668,-1.285638 1.05833,-1.620056 v -1.672249 c -1.1e-4,-0.779403 0.71067,-1.411287 1.5875,-1.411284 z"
         style="fill:#20112c;fill-opacity:1;stroke-linecap:round;stroke-linejoin:round;stroke-miterlimit:3.5"
         id="path127" />
    </g>
  </g>
</svg>
